<mxfile host="Electron" modified="2023-07-18T08:05:37.767Z" agent="Mozilla/5.0 (Windows NT 10.0; Win64; x64) AppleWebKit/537.36 (KHTML, like Gecko) draw.io/21.6.1 Chrome/112.0.5615.204 Electron/24.6.1 Safari/537.36" etag="mqgj8RTP7ctCjFni1E9t" version="21.6.1" type="device">
  <diagram name="Страница 1" id="FqeUXOQPOb14HzBBwZJ1">
    <mxGraphModel dx="1194" dy="616" grid="1" gridSize="10" guides="1" tooltips="1" connect="1" arrows="1" fold="1" page="1" pageScale="1" pageWidth="827" pageHeight="1169" math="0" shadow="0">
      <root>
        <mxCell id="0" />
        <mxCell id="1" parent="0" />
        <mxCell id="VGHdbUVDwBd3Mr-e9s5p-3" value="" style="edgeStyle=orthogonalEdgeStyle;rounded=0;orthogonalLoop=1;jettySize=auto;html=1;" edge="1" parent="1" source="VGHdbUVDwBd3Mr-e9s5p-1" target="VGHdbUVDwBd3Mr-e9s5p-2">
          <mxGeometry relative="1" as="geometry" />
        </mxCell>
        <mxCell id="VGHdbUVDwBd3Mr-e9s5p-1" value="начало" style="ellipse;whiteSpace=wrap;html=1;" vertex="1" parent="1">
          <mxGeometry x="330" y="30" width="120" height="80" as="geometry" />
        </mxCell>
        <mxCell id="VGHdbUVDwBd3Mr-e9s5p-5" value="" style="edgeStyle=orthogonalEdgeStyle;rounded=0;orthogonalLoop=1;jettySize=auto;html=1;" edge="1" parent="1" source="VGHdbUVDwBd3Mr-e9s5p-2" target="VGHdbUVDwBd3Mr-e9s5p-4">
          <mxGeometry relative="1" as="geometry" />
        </mxCell>
        <mxCell id="VGHdbUVDwBd3Mr-e9s5p-2" value="Номер" style="whiteSpace=wrap;html=1;" vertex="1" parent="1">
          <mxGeometry x="330" y="140" width="120" height="30" as="geometry" />
        </mxCell>
        <mxCell id="VGHdbUVDwBd3Mr-e9s5p-7" value="" style="edgeStyle=orthogonalEdgeStyle;rounded=0;orthogonalLoop=1;jettySize=auto;html=1;" edge="1" parent="1" source="VGHdbUVDwBd3Mr-e9s5p-4" target="VGHdbUVDwBd3Mr-e9s5p-6">
          <mxGeometry relative="1" as="geometry" />
        </mxCell>
        <mxCell id="VGHdbUVDwBd3Mr-e9s5p-4" value="присвоить номер" style="shape=parallelogram;perimeter=parallelogramPerimeter;whiteSpace=wrap;html=1;fixedSize=1;" vertex="1" parent="1">
          <mxGeometry x="330" y="190" width="120" height="40" as="geometry" />
        </mxCell>
        <mxCell id="VGHdbUVDwBd3Mr-e9s5p-9" value="" style="edgeStyle=orthogonalEdgeStyle;rounded=0;orthogonalLoop=1;jettySize=auto;html=1;" edge="1" parent="1" source="VGHdbUVDwBd3Mr-e9s5p-6" target="VGHdbUVDwBd3Mr-e9s5p-8">
          <mxGeometry relative="1" as="geometry" />
        </mxCell>
        <mxCell id="VGHdbUVDwBd3Mr-e9s5p-12" value="" style="edgeStyle=orthogonalEdgeStyle;rounded=0;orthogonalLoop=1;jettySize=auto;html=1;" edge="1" parent="1" source="VGHdbUVDwBd3Mr-e9s5p-6" target="VGHdbUVDwBd3Mr-e9s5p-11">
          <mxGeometry relative="1" as="geometry" />
        </mxCell>
        <mxCell id="VGHdbUVDwBd3Mr-e9s5p-6" value="проверить на деление на два без остатка num%2==0" style="rhombus;whiteSpace=wrap;html=1;" vertex="1" parent="1">
          <mxGeometry x="260" y="260" width="260" height="80" as="geometry" />
        </mxCell>
        <mxCell id="VGHdbUVDwBd3Mr-e9s5p-15" style="edgeStyle=orthogonalEdgeStyle;rounded=0;orthogonalLoop=1;jettySize=auto;html=1;entryX=1;entryY=0.5;entryDx=0;entryDy=0;" edge="1" parent="1" source="VGHdbUVDwBd3Mr-e9s5p-8" target="VGHdbUVDwBd3Mr-e9s5p-13">
          <mxGeometry relative="1" as="geometry" />
        </mxCell>
        <mxCell id="VGHdbUVDwBd3Mr-e9s5p-8" value="печатать четное" style="shape=document;whiteSpace=wrap;html=1;boundedLbl=1;" vertex="1" parent="1">
          <mxGeometry x="570" y="400" width="120" height="80" as="geometry" />
        </mxCell>
        <mxCell id="VGHdbUVDwBd3Mr-e9s5p-14" style="edgeStyle=orthogonalEdgeStyle;rounded=0;orthogonalLoop=1;jettySize=auto;html=1;entryX=0;entryY=0.5;entryDx=0;entryDy=0;" edge="1" parent="1" source="VGHdbUVDwBd3Mr-e9s5p-11" target="VGHdbUVDwBd3Mr-e9s5p-13">
          <mxGeometry relative="1" as="geometry" />
        </mxCell>
        <mxCell id="VGHdbUVDwBd3Mr-e9s5p-11" value="пропустить" style="whiteSpace=wrap;html=1;" vertex="1" parent="1">
          <mxGeometry x="130" y="400" width="120" height="60" as="geometry" />
        </mxCell>
        <mxCell id="VGHdbUVDwBd3Mr-e9s5p-13" value="конец" style="ellipse;whiteSpace=wrap;html=1;aspect=fixed;" vertex="1" parent="1">
          <mxGeometry x="370" y="520" width="80" height="80" as="geometry" />
        </mxCell>
        <mxCell id="VGHdbUVDwBd3Mr-e9s5p-19" value="true" style="text;html=1;strokeColor=none;fillColor=none;align=center;verticalAlign=middle;whiteSpace=wrap;rounded=0;" vertex="1" parent="1">
          <mxGeometry x="550" y="270" width="60" height="20" as="geometry" />
        </mxCell>
        <mxCell id="VGHdbUVDwBd3Mr-e9s5p-20" value="folse" style="text;html=1;strokeColor=none;fillColor=none;align=center;verticalAlign=middle;whiteSpace=wrap;rounded=0;" vertex="1" parent="1">
          <mxGeometry x="200" y="270" width="60" height="20" as="geometry" />
        </mxCell>
      </root>
    </mxGraphModel>
  </diagram>
</mxfile>
